REM DIRINDEX 1\2,1\3,1\4,1\5
REM DIRNAME "folder01","folder02","folder03","folder04","folder05"
TITLE ""
FILE "P1Q_t_0629-0638.mp3" MP3
  TRACK 01 AUDIO
    TITLE "0:"
    INDEX 01 00:00:00
  TRACK 02 AUDIO
    TITLE "3:cjc173_2824"
    INDEX 01 00:00:10
  TRACK 03 AUDIO
    TITLE "0:"
    INDEX 01 00:01:27
  TRACK 04 AUDIO
    TITLE "4:cjc173_2825"
    INDEX 01 00:01:51
  TRACK 05 AUDIO
    TITLE "0:"
    INDEX 01 00:04:30
  TRACK 06 AUDIO
    TITLE "5:cjc173_2826"
    INDEX 01 00:04:49
  TRACK 07 AUDIO
    TITLE "0:"
    INDEX 01 00:09:70
  TRACK 08 AUDIO
    TITLE "3:cjc173_2827"
    INDEX 01 00:10:48
  TRACK 09 AUDIO
    TITLE "0:"
    INDEX 01 00:11:65
  TRACK 10 AUDIO
    TITLE "4:cjc173_2828"
    INDEX 01 00:12:12
  TRACK 11 AUDIO
    TITLE "0:"
    INDEX 01 00:13:13
  TRACK 12 AUDIO
    TITLE "5:cjc173_2829"
    INDEX 01 00:13:33
  TRACK 13 AUDIO
    TITLE "0:"
    INDEX 01 00:19:04
  TRACK 14 AUDIO
    TITLE "3:cjc173_2830"
    INDEX 01 00:19:49
  TRACK 15 AUDIO
    TITLE "0:"
    INDEX 01 00:20:66
  TRACK 16 AUDIO
    TITLE "4:cjc173_2831"
    INDEX 01 00:21:14
  TRACK 17 AUDIO
    TITLE "0:"
    INDEX 01 00:23:23
  TRACK 18 AUDIO
    TITLE "5:cjc173_2832"
    INDEX 01 00:23:43
  TRACK 19 AUDIO
    TITLE "0:"
    INDEX 01 00:28:54
  TRACK 20 AUDIO
    TITLE "3:cjc173_2833"
    INDEX 01 00:29:26
  TRACK 21 AUDIO
    TITLE "0:"
    INDEX 01 00:30:33
  TRACK 22 AUDIO
    TITLE "4:cjc173_2834"
    INDEX 01 00:30:54
  TRACK 23 AUDIO
    TITLE "0:"
    INDEX 01 00:34:43
  TRACK 24 AUDIO
    TITLE "5:cjc173_2835"
    INDEX 01 00:34:60
  TRACK 25 AUDIO
    TITLE "0:"
    INDEX 01 00:38:54
  TRACK 26 AUDIO
    TITLE "3:cjc173_2836"
    INDEX 01 00:39:24
  TRACK 27 AUDIO
    TITLE "0:"
    INDEX 01 00:40:49
  TRACK 28 AUDIO
    TITLE "4:cjc173_2837"
    INDEX 01 00:40:73
  TRACK 29 AUDIO
    TITLE "0:"
    INDEX 01 00:44:17
  TRACK 30 AUDIO
    TITLE "5:cjc173_2838"
    INDEX 01 00:44:37
  TRACK 31 AUDIO
    TITLE "0:"
    INDEX 01 00:49:03
  TRACK 32 AUDIO
    TITLE "3:cjc173_2839"
    INDEX 01 00:49:50
  TRACK 33 AUDIO
    TITLE "0:"
    INDEX 01 00:50:61
  TRACK 34 AUDIO
    TITLE "4:cjc173_2840"
    INDEX 01 00:51:08
  TRACK 35 AUDIO
    TITLE "0:"
    INDEX 01 00:52:17
  TRACK 36 AUDIO
    TITLE "5:cjc173_2841"
    INDEX 01 00:52:36
  TRACK 37 AUDIO
    TITLE "0:"
    INDEX 01 00:57:30
  TRACK 38 AUDIO
    TITLE "3:cjc173_2842"
    INDEX 01 00:58:06
  TRACK 39 AUDIO
    TITLE "0:"
    INDEX 01 00:59:23
  TRACK 40 AUDIO
    TITLE "4:cjc173_2843"
    INDEX 01 00:59:42
  TRACK 41 AUDIO
    TITLE "0:"
    INDEX 01 01:00:48
  TRACK 42 AUDIO
    TITLE "5:cjc173_2844"
    INDEX 01 01:00:67
  TRACK 43 AUDIO
    TITLE "0:"
    INDEX 01 01:05:57
  TRACK 44 AUDIO
    TITLE "3:cjc173_2845"
    INDEX 01 01:06:29
  TRACK 45 AUDIO
    TITLE "0:"
    INDEX 01 01:07:32
  TRACK 46 AUDIO
    TITLE "4:cjc173_2846"
    INDEX 01 01:07:56
  TRACK 47 AUDIO
    TITLE "0:"
    INDEX 01 01:10:34
  TRACK 48 AUDIO
    TITLE "5:cjc173_2847"
    INDEX 01 01:10:56
  TRACK 49 AUDIO
    TITLE "0:"
    INDEX 01 01:16:06
  TRACK 50 AUDIO
    TITLE "3:cjc173_2848"
    INDEX 01 01:16:51
  TRACK 51 AUDIO
    TITLE "0:"
    INDEX 01 01:17:70
  TRACK 52 AUDIO
    TITLE "4:cjc173_2849"
    INDEX 01 01:18:16
  TRACK 53 AUDIO
    TITLE "0:"
    INDEX 01 01:20:49
  TRACK 54 AUDIO
    TITLE "5:cjc173_2850"
    INDEX 01 01:20:66
  TRACK 55 AUDIO
    TITLE "0:"
    INDEX 01 01:26:61
  TRACK 56 AUDIO
    TITLE "3:cjc173_2851"
    INDEX 01 01:27:35
  TRACK 57 AUDIO
    TITLE "0:"
    INDEX 01 01:28:48
  TRACK 58 AUDIO
    TITLE "4:cjc173_2852"
    INDEX 01 01:28:68
  TRACK 59 AUDIO
    TITLE "0:"
    INDEX 01 01:32:36
  TRACK 60 AUDIO
    TITLE "5:cjc173_2853"
    INDEX 01 01:32:58
  TRACK 61 AUDIO
    TITLE "0:"
    INDEX 01 01:37:41
